<svg width="4407" height="2482" xmlns="http://www.w3.org/2000/svg" xmlns:xlink="http://www.w3.org/1999/xlink" xml:space="preserve" overflow="hidden"><g transform="translate(3 3)"><rect x="0.499836" y="0.499836" width="4400" height="2475" stroke="#042433" stroke-width="6.875" stroke-miterlimit="8" fill="#0E3041"/><path d="M0.499836 0.499836 922.052 0.499836 947.921 19.9729C1110.16 154.339 1210.5 339.964 1210.5 545 1210.5 955.071 809.123 1287.5 314 1287.5 221.164 1287.5 131.624 1275.81 47.4083 1254.12L0.499836 1239.9Z" stroke="#042433" stroke-width="6.875" stroke-miterlimit="8" fill="#104862" fill-rule="evenodd"/><path d="M4400.5 2475.5 2269.51 2475.5 2209.69 2439.16C1834.54 2188.38 1602.5 1841.94 1602.5 1459.27 1602.5 693.93 2530.64 73.5 3675.56 73.5 3890.24 73.5 4097.29 95.3115 4292.03 135.802L4400.5 162.34Z" stroke="#042433" stroke-width="6.875" stroke-miterlimit="8" fill="#104862" fill-rule="evenodd"/><path d="M84.5001 108.854C84.5001 89.3285 100.328 73.5001 119.854 73.5001L4282.15 73.5001C4301.67 73.5001 4317.5 89.3285 4317.5 108.854L4317.5 2367.15C4317.5 2386.67 4301.67 2402.5 4282.15 2402.5L119.854 2402.5C100.328 2402.5 84.5001 2386.67 84.5001 2367.15Z" stroke="#042433" stroke-width="6.875" stroke-miterlimit="8" fill="#156082" fill-rule="evenodd"/><path d="M196.5 190.305C196.5 172.187 211.188 157.5 229.305 157.5L4176.69 157.5C4194.81 157.5 4209.5 172.187 4209.5 190.305L4209.5 2285.69C4209.5 2303.81 4194.81 2318.5 4176.69 2318.5L229.305 2318.5C211.188 2318.5 196.5 2303.81 196.5 2285.69Z" stroke="#042433" stroke-width="6.875" stroke-miterlimit="8" fill="#0B3041" fill-rule="evenodd"/><path d="M1028.5 190.305C1028.5 172.187 1043.19 157.5 1061.3 157.5L4176.7 157.5C4194.81 157.5 4209.5 172.187 4209.5 190.305L4209.5 2285.7C4209.5 2303.81 4194.81 2318.5 4176.7 2318.5L1061.3 2318.5C1043.19 2318.5 1028.5 2303.81 1028.5 2285.7Z" stroke="#042433" stroke-width="6.875" stroke-miterlimit="8" fill="#104862" fill-rule="evenodd"/></g></svg>